# xmcd
# Track frame offsets:
# 182
# 10255
# 69680
#
# Disc length: 937 seconds
# Revision: 0
# Processed by: cddbd v1.4PL0 Copyright (c) Steve Scherf et al.
# Submitted via: VisiTrax 2.9.5.181 - For more info visit www.synapsa.com
#
DISCID=2003a703
DTITLE=Alan Jackson - Blue Blooded Woman
DYEAR=1989
DGENRE=Country
TTITLE0=Blue Blooded Woman
TTITLE1=Interview with Alan Jackson, Scott Hendricks, Keith Stegall, Tim DuBoi
TTITLE1=s
TTITLE2=Safe driving PSA for the holiday season by Alan Jackson
EXTD=
EXTT0=
EXTT1=
EXTT2=
PLAYORDER=
